<?xml version="1.0" encoding="UTF-8"?>
<svg id="Layer_1" xmlns="http://www.w3.org/2000/svg" version="1.1" viewBox="0 0 400.95 768">
  <!-- Generator: Adobe Illustrator 29.7.1, SVG Export Plug-In . SVG Version: 2.1.1 Build 8)  -->
  <path d="M-1911.84-850.31c-.26,9.43.36,18.94.05,28.38-3.66,111.87-22.04,228.28-38.04,339.12-.83,5.77,1.78,7.45-3.91,11.55-14.09,10.16-41.1,23.13-57.35,31.27-22.4,11.23-45.84,20.41-68.2,31.74-2.06-1.42-1.64-3.34-1.45-5.52,1.09-12.79,7.2-32.31,9.9-45.78,23.32-116.32,45.27-233.8,46.89-352.94l112.12-37.81Z"/>
  <path d="M70.65,626.59c.3-1.35.58-2.68.85-3.98,22.85-113.99,43.6-225.87,46.99-339.77l62.31-21.01c-3.73,96.98-18.43,197.82-32.65,295.41-1.58,10.87-3.16,21.7-4.72,32.47-11.57,7.14-28.93,15.78-41.09,21.82-2.41,1.2-4.69,2.33-6.79,3.39-8.12,4.07-16.34,7.84-24.88,11.68Z"/>
  <path d="M-1755.21-935.84l-.98,58.26c-4.86,79.63-11.79,159.12-22.61,238.11-1.18,2.74-15.07,10.87-18.74,13.2-25.66,16.34-69.34,43.3-97.07,53.38-1.29.47-2.36,1.11-3.82.8,5.05-44.23,12.91-88.3,18.4-132.56,7.86-63.43,13.9-127.32,13.71-191.36l111.12-39.84Z"/>
  <path d="M174.02,486.18c1.29-9,2.63-17.95,3.94-26.79,2.99-20.1,6.08-40.88,8.64-61.51,6.03-48.71,12.86-111.71,13.79-176.8l60.62-21.73-.36,21.55c-5.12,83.7-12.02,157.68-21.05,225.76-2.29,1.46-4.64,2.91-5.79,3.62-1.23.75-2.25,1.38-2.94,1.83-22.08,14.06-41.07,25.45-56.85,34.09Z"/>
  <path d="M-1600.63-1018.28l-.98,78.88c-5.16,114.8-18.19,186.7-116.78,254.2-2.28,1.56-15.86,11.12-17.23,10.07,3.53-28.72,7.97-57.39,11.21-86.16,8.16-72.4,14.13-145.2,14.52-218.16l109.27-38.83Z"/>
  <path d="M261.02,413.35c1.33-10.05,2.63-20.2,3.77-30.32,8.8-78.08,13.45-143.23,14.48-203.24l59.02-20.97-.53,42.59c-2.58,57.16-7.11,99.93-21.58,136.31-11.43,28.71-28.92,52.89-55.14,75.64Z"/>
</svg>